<?xml version="1.0" encoding="UTF-8"?>
<svg id="Layer_1" data-name="Layer 1" xmlns="http://www.w3.org/2000/svg" version="1.1" viewBox="0 0 492 366">
  <defs>
    <style>
      .cls-1 {
        fill: #200f13;
      }

      .cls-1, .cls-2 {
        stroke-width: 0px;
      }

      .cls-2 {
        fill: #ef4436;
      }
    </style>
  </defs>
  <path id="color_2" class="cls-2" d="M461.6,190.4c-6.2,2.3-12.2,2.6-18.8,3.1-.2,0-.4,0-.5.1-7.5-5-15.9-8.9-25-11.1-4-1-8-1.7-12.1-2.1.3-1.7-.2-4.2-.2-5.2-.3-5.5-.7-11-1.2-16.5-.4-4.6-.7-9.2-1.1-13.7,11.7,10.9,29.9,22,46.2,19.6,1-.1,1.9-.4,2.7-.6,2.2,4,3.5,9.6,5.1,14,1.2,3.1,2.3,6.2,3.6,9.3.4.9.7,2.2,1.3,3.2ZM432.9,190.9c-3.2-1.6-6.5-3-9.9-4.2,3.4,1.4,6.9,2.9,9.9,4.2ZM420,106.5c-2.7.3-4.9.6-6.4.9,1.7.5,4.1,0,6.4-.9ZM421.2,134.6c3.6,2,7.6,3.9,11.2,6.2v-4.4c0,0,0-.2,0-.2-1.1,0-2.2,0-3.3,0-1.4,0-1.5-1-.9-1.6-.9-6.9-.7-13.9-3.9-20.2-.3-.7,2.5-1.7,2.9-.8,3.2,6.4,3,13.5,3.9,20.4,7.3-.2,14.4,1.5,21.3.7.4-.6,2.7-1.1,2.8-.5,0,0,0,0,0,0,1.9-.4,3.7-1.1,5.6-2.1-5.3-6.4-7.9-14.4-11.3-21.9-2.9-6.4-14.2-19.6-20.1-8.6,0,.1-.2.3-.3.4,0,.2,0,.5-.2.8-4.7,5.7-21.3,12.1-21,.3-.3-.8-.9-2.3-1.6-3.7-1.2-1.6-2.8-2.7-4.9-1.4,0,0,0,0,0,0-1.2,1.1-2.8,2.7-4.4,4.3-.5.7-1,1.4-1.4,2.1-2.6,4.1-4.8,8.5-6.5,13,0,.1-.1.2-.2.3v.8c.6,0,1.4.2,2.1.4.8-1,2-1.7,3.8-1.6,4.6.2,8.9,3.5,12.3,6.3,4.7,3.7,8.8,8,14,11ZM32.8,63.2c8.7-5,18.4-8.3,27.9-11.4,3.4-1.1,6.7-2.2,10-3.3-.6-4.4-2.5-9-6.7-11.1-1.8-.9-3.8-1.4-5.8-1.6-4-.1-8.1.7-12.2,2.2-2.1.8-4.2,1.8-6,2.8-8.9,4.9-14.5,13.4-8.1,22.3.3,0,.6,0,.8,0ZM62.4,52.3c-.2,0-.5.2-.7.2-3.1,1-6.3,2.1-9.4,3.2,0,0,0,0,0,0,0,0,0,0,0,0,2.1-.8,4.3-1.6,6.4-2.3,1.4-.5,2.6-.9,3.6-1.2ZM82.8,185.8v-3.8s0,0,0,0h-31c-3.9,1-7.8,1.9-11.7,2.3-.3,0-.5.2-.7.3-1.4.6-3.8.4-6.1,0-1.8,0-3.6-.3-5.4-.6-1.1-.2-2.1-.5-3.1-.9v1.2c.4,0,.8.4.8.9v10.5c.9-1.5,2.1-3,3.5-4.2,7-5.9,17-5.8,25.6-5.5.5,0,.8.2.9.4,9.8,0,19.6,0,29.4,0v-.3c-.8.3-2,.4-2,0ZM84.7,187.5h0c-2-.1-4-.1-6-.1h5.9ZM35.2,158.5c0-.1,0-.3,0-.4,0,0-.2,0-.2,0l.3.3ZM37.1,154.8c0,0,.2,0,.3-.1,1.1-6.8-.3-13.1-.7-19.9,0-1.1,2.8-1.7,2.9-.8.4,7.6,2.1,14.4.4,21.9-.1.6-1.1.9-1.9,1,0,1.3,0,2.5.2,3.8,1.6-.2,4.3-.4,6.5,0,1.4,0,2.7,0,4.1.1v-42.5c0-.8,1.8-1.4,2.6-.9.3-.1.6-.2.9-.2h31.2c-2.1-5.5-6.5-13.6-13.4-13,0,.8,0,1.6,0,2.3,0,.9-1.2,1.3-2.1,1.2-.5.7-2.1,1.1-2.6.3-.8-1.2-1.4-2.4-2.1-3.6-.5,1.8-1.1,3.6-1.8,5.3.2.2.3.4.5.6.6.6-2.1,1.7-2.7,1-.1-.1-.2-.3-.3-.4-.4,0-.6,0-.5-.3,0,0,0-.2.1-.3-1.6-2.1-2.5-4.8-3-7.5-.4,1.2-.6,2.4-.7,3.7,0,.4-.4.7-.9.9-.4.4-1.9,1-2.5.9-5-1.3-9.3-2.2-12.9-6-6.6,6.9-19.5,6.6-23.8,15.5-5,10.4-4.9,23.1-4.8,34.3,0,.1,0,.2,0,.3,7.7,3.8,19.7,6.8,27.3,2.3ZM43,92.2c-.9,2.9-1.6,5.8-1.9,8.8,0,0,0,0,0,.1,3.1,3.3,6.8,4.4,10.9,5.5.2-2.5,1-4.8,2.4-6.9,0,0,0,0,0,0h0c-4.6-1.4-9-3.2-11.3-7.5ZM63.8,99.3s0,0,0,0c1.2,1.9,2.2,3.9,3.4,5.9.2-3.4.7-9.4-3.1-9.2,0,.9.2,1.7.2,2.4,0,.3-.2.6-.6.8Z"/>
  <path id="color_1" class="cls-1" d="M140.1,328.5h-32c-1.9,0,.3-1.4,1.2-1.4h32c1.9,0-.3,1.4-1.2,1.4ZM165.8,326.7h-15c-1.7,0-2.2,2.3-.2,2.3h15c1.7,0,2.2-2.3.2-2.3ZM199.7,327.3h-22c-.6,0-3.3,1.1-1.9,1.1h22c.6,0,3.3-1.1,1.9-1.1ZM215.3,328.1h-8c-.6,0-1.5.2-1.9.8-.4.5.4.7.7.7h8c.6,0,1.5-.2,1.9-.8.4-.5-.4-.7-.7-.7ZM209.1,283.5c-5.1.6-10.6.4-15.8.2-5.6,0-11.2,0-16.7-.1-.1,0-.3,0-.4,0-1.1,0-2.1,0-3.1-.2-1.5-.2-2.9-.8-3.3-2.6,0,0,0-.1,0-.2-.1-.4-.3-.9-.3-1.5,0,0,0,0,0,0-.7-4.7-.2-10,0-14.7v-1.7c0-2.1-.2-4.4,0-6.5,0-1.1.3-2.2.8-3,1.2-2.5,3.8-3.1,6.8-3,.5,0,.9.2,1.1.4,6.4,0,12.9-.1,19.3,0,4.2,0,8.4,0,12.6.2,3.7.2,4.3,3.2,4.3,6.4v5.4c0,5.1.4,10.3,0,15.4-.2,3.2-1.6,5.4-5,5.8ZM210.7,280.9c.5-1.8.5-3.7.5-5.6v-16.7c0-3.1,0-6.7-4-6.8-1.6,0-3.2,0-4.8,0-.1,0-.2,0-.3,0-1.6,0-3.2,0-4.9,0-1.7,0-3.4,0-5.1,0-.3,0-.5,0-.6,0-3.5,0-6.9,0-10.4,0-.7,0-2-.1-3.2-.2-.2.4-.7.6-1.3.6-2.3,0-4.1.4-4.3,3-.1,1.6,0,3.3,0,4.9v11.1s0,0,0,.1v3.2c0,1.7,0,3.4.3,4.7.9,3.3,3.6,2.9,7,3,4.1,0,8.2.1,12.2.1.2,0,.4,0,.5,0,1,0,2,0,3,0,1.1,0,2.1,0,3.2,0,.3,0,.5,0,.6,0,2.7,0,5.5,0,8.2-.1,1.3,0,3,.4,3.5-1.3ZM444.2,338.7c-35.5,21.2-88.1,20.5-118.7-9.2-3-3-5.8-6.2-8.5-9.5-4.5,9-13.5,12.7-23.6,13-16.6.5-33.2-.4-49.8-.5-.5,4.2-1.4,8.2-3.3,11.9-5.2,10.1-16.8,9.9-26.5,10-24.5.4-49.3,1.2-73.8.6-6.8,0-13.5-.2-20.3-.2-16.9,0-33.7-.1-50.6-.3-4.9,0-9.8,0-14.7,0-.3.2-.7.3-.9.3-5.3.2-11.8.4-17.4-1.2-4.6-1-7.8-3.5-10-7-4.2-6.2-4.6-14.7-4.7-21.9,0-1.6,0-3.1,0-4.6-.1-13.1-.1-26.1,0-39.2-.2-19.5-.6-39-.1-58.4,0-2.2.1-4.4.2-6.6,0-.5,0-1,0-1.5.1-3.4.4-7.2,1.1-10.9v-18.2c0-.8,1.3-1.3,2.2-1.1.4,0,.8.4.8.9v10.5c.9-1.5,2.1-3,3.5-4.2,7-5.9,17-5.8,25.6-5.5.5,0,.8.2.9.4,9.8,0,19.6,0,29.4,0,13.8,0,27.5,0,41.3,0,8.4,0,16.8-.1,25.2-.2-.4-10.8,0-21.7,0-32.5,0-.8,0-1.7,0-2.5-8.2-.1-16.4-.3-24.6-.7v29c0,.4-.4.7-.8.9h.6c2,0,.2,1.9-1,1.9h-39.6v3.1c0,.3-.4.6-.9.7-.9.3-2,.4-2,0v-3.8s0,0,0,0h-31c-3.9,1-7.8,1.9-11.7,2.3-2.3.2-4.6.3-6.9.2-1.8,0-3.6-.3-5.4-.6-1.1-.2-2.1-.5-3.1-.9-10.3-4.1-13.9-17.5-14.7-27.5-1-.4-1.9-.9-2.8-1.3-.8-.4-.7-1.1-.3-1.6,0,0,0,0,0-.1,0-11.6-.4-25.7,5.7-36,5.3-9.1,18.7-8,24.7-16.4.3-.4.7-.6,1.2-.6.4-2.7,1.1-5.3,2-7.9.2-.5,1.1-.8,1.8-.8,0-.6.5-1,1.2-1.1v-4.9c-1.6.2-3.1,0-4.1-1.2-.7-.7-1.1-1.7-1.3-2.6-6.6-3.1-7.6-8.9-7.7-15.5-.2,0-.4,0-.5-.2-9.6-11.9,1.5-22.3,12.8-26.8,11.9-4.8,28.5-6.8,30.9,9.3,7.1-2.3,14.2-4.3,21.6-5.9,2-.4.6.9-.5,1.1-7.2,1.5-14.1,3.5-21,5.7,0,.1,0,.2-.2.4.2,0,.4.2.4.4,1,9.1,13,22.1,7,31.2-1.1,1.7-2.4,3-4.3,3.9-2.4,1.1-6,1.7-7.8,3.6-1.1,1.1-3.4,2.8-4.2,4.3-.3.5-.4,1.1-.4,1.7,2.5-.2,4.8.6,5.6,3.4.5,1.7.5,3.5.5,5.3,8.4-1.2,13.6,6.8,16.2,13.8,0,.2,0,.5-.4.7h40.3c1.3,0,1,.9.2,1.4v4.6c7.3-.3,14.5-.5,21.7-.5,2,0,1.4,2.1-.3,2.1-7.1,0-14.3.1-21.5.4v22.8c1.2,0,2.4,0,3.6.1,7,.3,14,.5,21.1.6,0-19.5,0-38.9.2-58.4,0-15.1.2-30.2.3-45.3,0-2,0-4.1,0-6.1-.2,0-.4-.2-.4-.3-.2-5.2-.4-11.4,1.1-16.8,1.3-6.5,5.6-10.3,11.2-12.5,5-2.1,10.7-2.6,16-2.8,1.6,0,3.2-.1,4.8-.1,9.7-.2,19.4-.3,29.2-.3.1,0,.2,0,.4,0,25.6,0,51.2-.5,76.7,0,8,.2,18.3.4,24.5,6.4.3.3.5.5.7.8,0,0,.2.2.2.3.2.2.4.5.6.7,0,0,0,0,.1.1,0,0,0,0,0,0,4.9,6.5,4.9,15.7,4.6,23.5,0,7.3,0,14.6,0,21.8,0,30.3,0,60.6,0,90.9,7.9-.3,15.8-.8,23.7-1.5.6-7.1,1.2-14.3,2.3-21.3-5.3-.3-10.6-.5-15.9-.5,1.2.9,2.3,1.9,3.3,2.6,1,.7,5.7,3.5,3.6,4.9-1,.7-3.4.2-1.8-.9-.9.6-.3.7-1.2-.1-.4-.4-.8-.7-1.3-1.1-1.2-1-2.4-1.9-3.7-2.8-1.4-1-3.8-3.1-5.1-3.5-1.5-.5.4-1.6,1.1-1.7,1.9-.2,4.8-2.3,6.6-3.2,1.6-.8,3.3-2.1,5.1-2.5,1.7-.4,2.2,1.1.4,1.5-1.3.3-4.4,2.3-6.2,3.2-.9.4-1.8,1-2.7,1.4,6,0,12.1,0,18.1.4,0-.6.6-1.3,1.5-1.3h7.4c-.2-9.3,3.7-19.8,13.8-21.6,3.6-.7,6.7-.1,9.3,1.3-.7-1.8-1-3.7-.4-5.7.6-2.3,2.9-5.4,2.4-7.7-1.8-1-8.7-4.9-6.1-9.3.3-.5.7-1.1,1.2-1.6,2.5-5.8,11.8-8.9,15.4-14.3,1.7-4.2,3.4-8.5,3.8-12.9,0-.1,0-.2.1-.3-1.6-.4-3-1.2-4-2.5-2.1-2.7-.2-4.6,2.4-5.7.6-.8,1.3-1.4,2-2-1.5-1.7-3-3.8-2.2-5.5.4-1.1,1.3-1.7,2.3-2.2.4-.7,1.8-.9,3.6-.8,4.9-.4,10.2.7,14.8,2.5.2-.5.4-.9.6-1.3.6-1.5,1.8-3.7,4.5-5.8,4.8-3.9,9.7,9.6,11.3,12.3.5.3,1.2.5,1.8.6.6-.3,1.5-.7,3.3-.9,1.5-.2,1.8.6,1.5,1.7.2,0,.4.2.5.3,2,1.4-.7,3.3-2.7,4.6,3.2.6,6.4,1.2,8.6,3.7.2.2.2.3.1.5,2.9,2.8,4.4,6.3,4.5,10.4.2,4.2-1.3,9.1-.4,13.2,0,.3.2.6.3.9,1.5,1.2,3.7,3,6.2,4.9,3,1.4,6.2,2.8,7.1,5.6.9,1.3.8,2.3,0,3.3-.4,1.5-1.3,2.8-1.9,4.3-1.8,4.1-.5,7.5.7,11.5,1.2,4.1.9,7-1,9.2-.7,1.7-2.4,2.5-3.9,3,1.9,4.6,3.9,9.1,7,12.8,1.1,0,2.3.8,1,1.6-2.8,1.9-5.6,3.2-8.7,4,2.3,8.6,5.9,21.2-1.7,26.2,2.1,3.8,3.2,8.6,4.7,12.6,1.2,3.3,2.4,6.5,3.7,9.8.6,1.5,1.1,4,2.3,5.2.5.5-.2,1.4-.7,1.6-6.5,2.7-12.6,3.3-19.3,3.8,18.4,13.4,31.2,34,35.3,56.9,6.1,33.3-6.3,68.5-36.1,86.3ZM457.1,97.1c.2-1,.6-1.9,1-2.8-.4.5-.7,1-.8,1.6-.1.4-.1.8-.2,1.3ZM38.3,160.6c0,.2,0,.3,0,.5,2.1-.3,4.3-.5,6.4-.5,1.4,0,2.7,0,4.1.1v-42.5c0-.8,1.8-1.4,2.6-.9.3-.1.6-.2.9-.2h31.2c-2.1-5.5-6.5-13.6-13.4-13,0,.8,0,1.6,0,2.3,0,.9-1.2,1.3-2.1,1.2-.5.7-2.1,1.1-2.6.3-.8-1.2-1.4-2.4-2.1-3.6-.5,1.8-1.1,3.6-1.8,5.3.2.2.3.4.5.6.6.6-2.1,1.7-2.7,1-.1-.1-.2-.3-.3-.4-.4,0-.6,0-.5-.3,0,0,0-.2.1-.3-1.6-2.1-2.5-4.8-3-7.5-.4,1.2-.6,2.4-.7,3.7,0,.4-.4.7-.9.9-.4.4-1.9,1-2.5.9-5-1.3-9.3-2.2-12.9-6-6.6,6.9-19.5,6.6-23.8,15.5-5,10.4-4.9,23.1-4.8,34.3,0,.1,0,.2,0,.3,7.7,3.8,19.7,6.8,27.3,2.3,0,0,.2,0,.3-.1,1.1-6.8-.3-13.1-.7-19.9,0-1.1,2.8-1.7,2.9-.8.4,7.6,2.1,14.4.4,21.9-.1.6-1.1.9-1.9,1,0,1.3,0,2.5.2,3.8ZM41.1,101s0,0,0,.1c3.1,3.3,6.8,4.4,10.9,5.5.2-2.5,1-4.8,2.4-6.9,0,0,0,0,0,0,0,0,0,0,0,0,0,0,0,0,0,0-4.6-1.4-9-3.1-11.3-7.4-.9,2.9-1.6,5.8-1.9,8.8ZM64.4,98.5c0,.3-.2.6-.6.8,0,0,0,0,0,0,1.2,1.9,2.2,3.9,3.4,5.9.2-3.4.7-9.4-3.1-9.2,0,.9.2,1.7.2,2.4ZM46,38c-2.1.8-4.2,1.8-6,2.8-8.9,4.9-14.5,13.4-8.1,22.3.3,0,.6,0,.8,0,8.7-5,18.4-8.3,27.9-11.4,3.4-1.1,6.7-2.2,10-3.3-.6-4.4-2.5-9-6.7-11.1-1.8-.9-3.8-1.4-5.8-1.6-4-.3-8.3.7-12.2,2.2ZM43.8,83.3c.6-.5,1.8-.7,2.3-.3.3-.1.6-.2.9-.3.6-.3,1.4-.5,2-.4.6.2,0,.7-.3.8-.6.3-1.4.6-2.3.9v6.8c0,.3-.2.5-.5.7,2.2,3.9,6.7,5.3,10.9,6.5.5.1.7.4.7.7.2,0,.3.1.3.3.3,2.5.9,5.4,2,7.9.6-1.7,1-3.4,1.2-5.2,0-.2.2-.3.4-.5,0-.1-.2-.3-.3-.4-.3-.5-.1-.9.3-1.2,0,0,0,0,0-.1-.1-2.5-.9-6,1.2-8,3.2-3,5.4-5.2,9.6-6.7,12.8-4.6,4.9-17.6.7-27.8-.7.3-1.5.4-1.8.1-.6-.5-1.5,0-1.9.5-.4.5-1.3.7-1.9.7-.4,0-1.2-.1-.7-.6.9-1.1,2.4-1.7,3.7-2,.6-.1,1.4-.3,2.1-.2-.7-1.9-1.2-3.7-1.4-5.3,0-.2,0-.4.2-.6-.1,0-.2,0-.3,0-2.9.9-5.7,1.9-8.6,2.8-.2,0-.5.2-.7.2-3.1,1-6.3,2.1-9.4,3.2,0,0,0,0,0,0,0,0,0,0,0,0,.1.1.2.3.2.5-.3,6.6,4.5,12.6-1.5,17.9-.5.4-1.7.5-2.3.3-.8.3-1.8.5-2.1,0-.4-.6-.8-1.2-1.3-1.7l-1.2-.6-3.3,5.5c-.1,1.5,0,3,.9,4.2.6.8,1.3,1.1,2,1.2ZM50.9,180.7c.4-.4,1-.7,1.5-.7h1c.6-.2,1.2-.3,1.8-.5,7.1-2,14.1-4.4,21.3-6,0,0,0,0,0,0,5.2-1.4,12.7-2.1,16.1-6.9-2.4,1.2-5,2-6.6,2.3-1.7.4-2.1-.9-.4-1.3,3.1-.7,9.8-2.9,9.5-6.9-2.1,2.9-6.6,4.2-10,5.1-1.7.4-2-.6-.3-1.1,3.8-1,8.4-2.4,8.6-6.8-2.5,2.3-6.9,3.9-8.9,5.1-.5.3-3.4.7-2.2,0,3-1.8,11.1-4.1,9.8-8.8-3.7,1.8-7.4,3.8-11.1,5.8,0,0-.2,0-.3.1-.7.6-3.2.8-2.5,0,1.7-2.5,4.2-4.6,5.4-7.4.3-.6.4-1.1-.1-1.7-.4-.4-.3-.5-.5-.4-.3.2-.6.4-.8.6-.6.5-1.1,1-1.6,1.6.2,0,.2.2,0,.4-5.1,6.1-11.8,9.6-19.8,9.9-7.6.2-15.2-1.5-22.7-.4-.6.5-1.9.8-2.5.5-1.3.3-2.6.7-3.9,1.3-1.2.5-2.9,0-1-.8,1.5-.7,3.1-1.2,4.6-1.6-.2-1.1-.2-2.2-.2-3.3,0-.1,0-.3,0-.4,0,0-.2,0-.2,0-6.6,2.2-15,.9-21.8-1.5,1.1,10,4.9,22.8,15.6,25.6,7.1,1.9,15,.4,22.2-1.5ZM123.9,180c-.2-.1-.3-.3-.3-.5v-29.5c-6.2-.3-12.3-.7-18.4-1.3-7.9-.7-15.8-1.6-23.5-3.5-3.8-.9-9.7-2.2-12.1-5.8-6-9.1,19-12.4,23.1-13.1,10.2-1.6,20.6-2.5,30.9-3v-4.3H51.8v41.8s0,0,0,.1c9.6.7,18,.8,24.9-6.5,0,0,0,0,0-.1,1-1.8,2.6-3.5,4.3-4.5,1.6-.9,4.1-1.7,5.4,0,1.1,1.6-.6,3.6-1.6,4.9-.8,1.1-1.6,2.1-2.5,3.2,3.3-1.8,6.7-3.5,10.2-5.1.3-.2,2-.8,2.3-.2.6,1.2.5,2.2.1,3.2.7-.1,1.3,0,1.4.2.1,1,0,2-.3,2.8.8-.3,1.7-.3,1.8.2.7,2.4-.7,4.4-2.8,6,.6,0,1,0,.9.3-3.4,5.9-11.6,7.2-17.9,8.8-.2.2-.5.3-.9.4-6.1,1.3-12.4,3.5-18.7,5.4,21.8,0,43.6,0,65.4,0ZM92.5,128.5c-5.5.9-16.3,1.6-20.1,6.5-2.9,3.7,4.4,6.4,6.8,7.1,14,4.5,29.6,5.3,44.5,5.8v-22.5c-10.5.5-20.9,1.4-31.2,3.1ZM442.2,193.6c.2,0,.3-.1.5-.1,6.6-.5,12.6-.8,18.8-3.1-.6-1-.9-2.3-1.3-3.2-1.2-3.1-2.4-6.2-3.6-9.3-1.6-4.4-2.9-10-5.1-14-.8.3-1.7.5-2.7.6-16.3,2.4-34.6-8.7-46.2-19.6.4,4.6.7,9.2,1.1,13.7.5,5.5.9,11,1.2,16.5,0,1,.5,3.5.2,5.2,4.1.4,8.1,1.1,12.1,2.1,9.1,2.3,17.4,6.1,25,11.1ZM453,137c-1.4.2-2.8.3-4.3.3-4.5,0-8.9-.7-13.3-1.1v6.2c0,.2,0,.3-.1.4,1.8,1.6,3.5,3.4,4.7,5.6.3.6-2.4,1.6-2.9.8-3.4-6.1-10.1-9.1-16-12.3-4.3-2.3-7.8-4.9-11.4-8.1-3-2.6-6-5.2-9.4-7.4-1.6-1-3.4-2.2-5.4-2.7-2.6-.6-2.2,3.4-1.9,5.5h5.6c.7,0,1.1.3,1.2.6.4,0,.6.3.7.6.8,5.7,1.4,11.4,2,17.1.6-.2,1.3-.3,1.6,0,5.2,5.1,11.3,9.4,17.6,12.9,7,3.9,15.2,7.9,23.4,8.1,2.5,0,4.5-.3,6-1,0-.7,1.1-1.3,1.9-1.2,5.6-4.9,2.1-16.6,0-24.4ZM390.1,121.1c-.1,0-.3,0-.4,0-.3-.1-.6-.2-1-.3,0,.1,0,.2,0,.4,0,1.1-1.9,1.7-2.6,1.3,0,.7.2,1.4.5,2h3.2c0-1.1,0-2.2.2-3.2ZM388.9,117.7c-.1.1-.3.3-.5.4,0,.1,0,.3,0,.4.1,0,.2,0,.3,0,.8,0,1.5.2,2.2.4.8-1,2-1.7,3.8-1.6,4.6.2,8.9,3.5,12.3,6.3,4.7,3.7,8.8,8,14,11,3.6,2,7.6,3.9,11.2,6.2v-4.4c0,0,0-.2,0-.2-1.1,0-2.2,0-3.3,0-1.4,0-1.5-1-.9-1.6-.9-6.9-.7-13.9-3.9-20.2-.3-.7,2.5-1.7,2.9-.8,3.2,6.4,3,13.5,3.9,20.4,7.3-.2,14.4,1.5,21.3.7.4-.6,2.7-1.1,2.8-.5,0,0,0,0,0,0,1.9-.4,3.7-1.1,5.6-2.1-5.3-6.4-7.9-14.4-11.3-21.9-2.9-6.4-14.2-19.6-20.1-8.6,0,.1-.2.3-.3.4,0,.2,0,.5-.2.8-4.7,5.7-21.3,12.1-21,.3,0-.3,0-.7,0-1,0,0,0,0,0,0-.4-.8-1-1.8-1.6-2.6-1.2-1.6-2.8-2.7-4.9-1.4,0,0,0,0,0,0-1.2,1.1-2.8,2.7-4.4,4.3-.5.7-1,1.4-1.4,2.1-2.6,4.1-4.8,8.5-6.5,13,0,.1-.1.2-.2.3ZM433.7,49.3s1.5-.8,6.9,1.7c-1.9-1.2-4.3-1.7-6.6-2.1-.2.2-.3.4-.3.4ZM397.2,36.6s0,0,0,.1c.1,1,.6,2,1.2,2.8-.2-.5-.6-1.4-1.2-3ZM393.4,85.3c.8.8,1.8,1.4,2.8,1.9,2.1.6,4.4,1.2,6.4,1.9,2,.5,3.9,1,5.6,2.1,3.4,2.2,3.5,6.4,3.5,10.1,0,.3-.3.6-.8.8-.2,3.1.9,4.7,2.7,5.2,1.7.5,4.1,0,6.4-.9,2.7-1.1,5.2-2.9,6.6-4.6,0,0,0,0,.1,0,0-.2,0-.4.1-.6.2-.4.5-.8.7-1.2-2.2.3-4.2-.1-5.8-.9-.3,0-.6-.1-.9-.2-1.4-.4-2.3-1.6-2.7-3.1-1.9-3.1-2-7.4.6-11.2,0-.1,0-.2,0-.2,0,0,0,0,0,0,.2-.2.3-.4.5-.7,0,0,0,0,0,0-.2,0-.4-.2-.5-.2-.5-.2.8-.8.9-.9.6-.2,1.3-.4,1.9-.1,1,.5,2.3,1,3.5,1,0,0,.1,0,.2-.1.2-.2.4-.5.6-.7.8-1.5.8-3.3.4-4.9-.3-1.2-.7-2.5-1.5-3.5-1,0-2.2.1-3.2.3,0,.1-.2.2-.2.4-.3.5-1.1.7-1.7.8,0,0-1,.1-1.2-.1-.6.2-1.2.2-1.5-.1-5.3-4.8-1-10.3-1.2-16.1-2.5.4-5.8.3-7.7-1.6-1.6-1.7-1.6-3.8-.9-5.8-2.4.4-5.4,1-8.3.8-.2,1.7-.6,3.4-1.1,5.1,1.8-.5,4.1,0,5.2,1.4.6.7-2.2,1.7-2.7,1.1-.4-.4-.8-.7-1.4-.9-.3,0-.5-.2-.8-.2-.3.1-.5.2-.8.2-.3,1-.7,1.9-1,2.8.1.1.2.3.1.6-.3,1.3-.9,2.5-1.7,3.5-.2.5-.4.9-.5,1.4-1.6,4.7-5.1,13.6-.9,17.9ZM389.6,109s0,0,.1,0c.1,0,.2,0,.3.1,0,0,0-.1.1-.2-.1,0-.3,0-.5,0ZM385.7,110c.7,1.3,1.3,2.7,1.8,4.2.5-1.1,1-2.3,1.7-3.5-.4.2-.8.3-1.2.2-.8-.2-1.6-.5-2.3-.9ZM359.7,124.3h7.9c-.1-1.5.2-3,1.5-4.1,1.6-1.4,4-1.7,6.1-1.4.8.1,1,.5.7.8,1.4-.5,3-.6,4.4-.4.2,0,.4,0,.5.1,1.3-.4,2.7-.5,4.1-.3.3,0,.5.1.6.2,0,0,0,0,.1,0-1.2-7.5-5.6-16.8-14.5-14.7-9,2.1-11.8,11.6-11.4,19.9ZM383.8,120.7s0,0,0,0c-1-.1-2.4-.3-3,.6-.6.9-.6,1.9-.5,3h3.3c-.4-1.2-.4-2.5.3-3.6ZM376.1,121.6c-.6.8-.6,1.8-.5,2.8h1.6c0-1.3.2-2.5,1.1-3.5-.8,0-1.8,0-2.2.7ZM374,120.5c-1-.1-2.4-.3-3,.6-.7,1-.6,2.1-.4,3.2h2.1c0-1.4.4-2.7,1.5-3.7,0,0,0,0,.1,0-.1,0-.2,0-.3,0ZM348.1,148.9c5.7-.5,11.3-1.1,17-1.9,2.6-.3,30.9-3.8,22.1-10.9-6.7-5.4-17.5-6.2-25.7-7.1-3.7-.4-7.4-.7-11.2-1-1,6.9-1.6,13.9-2.2,20.9ZM345.8,181.2c.3.2.4.4.4.7h25.3c.6,0,1,.2,1.2.5,9.6-2.2,19.6-3.1,29.3-2.4,0-.5.1-1.1.1-1.6,0-2.2-.2-4.4-.3-6.6-.4-5.6-.8-11.1-1.3-16.7-.8-9.6-1.5-19.2-2.9-28.7h-23.4c-.2,0-.4,0-.5,0h-13.8s0,0,0,0c5.9.6,11.7,1.6,17.3,2.9,4.1,1,13.9,3.1,14.5,8.6.3,3.1-2.1,4.9-4.7,6.1-11.4,5.2-25.6,5.6-37.9,6.6-.4,0-.8,0-1.2,0-.2,1.9-.3,3.8-.5,5.7-.5,5.7-1,11.5-1.3,17.2-.1,1.9-.2,3.8-.3,5.7,0,.8.3,2.1-.2,1.8ZM321.5,210.9c12.2-12.5,28-21.9,45-26.9h-22c-1.2,0-1.4-.7-1.1-1.3-1.1-1-.3-5.4-.2-6.5.3-5.8.8-11.5,1.2-17.3.2-2.6.4-5.2.6-7.8-7.8.6-15.7,1-23.5,1.4v2.9c0,18.5.6,37.1,0,55.6ZM318.6,172.6c0-6.7,0-13.3,0-20-3.7.1-7.3.3-11,.4v76.5c1.8-3.2,3.8-6.4,6-9.3,1.5-2.1,3.2-4,4.9-6,.5-13.8,0-27.7,0-41.5ZM153.8,148.8c3.2,0,6.5,0,9.7.1V34.9c0-.3.3-.6.6-.7-1.1-.4-.4-1.9,1-1.9h139.5v-4.3c0-1.3,2.9-1.8,2.9-.2v123.4c3.7,0,7.3-.2,11-.3,0-19.1,0-38.3,0-57.4,0-18.1.2-36.3,0-54.5,0-.1-.1-.3-.1-.5,0-.8,0-1.6,0-2.5,0-2,0-4,0-5.9,0-4.6-1.1-10-3.9-14-.1-.2-.2-.3-.4-.5,0-.1-.2-.2-.2-.3-.7-.8-1.5-1.6-2.4-2.3-7.6-5.5-18.5-4.8-27.4-4.8h-70.5c-.5,0-.8-.1-1-.3h-23.7c-1.1,0-2.3,0-3.6,0-1.3,0-2.6,0-3.9,0-7.2.2-16.3,1-21.7,5.8-2.3,2.3-3.7,5.2-4.5,8.3,0,.2,0,.4-.1.7-.4,2.9-.3,5.8-.3,8.7-.6,29.4-.6,58.8-.7,88.1,0,9.8-.2,19.6-.3,29.4ZM154.2,185.9c3.1,0,6.3,0,9.4,0v-34.8c-3.3,0-6.5,0-9.8-.1-.1,11.7-.1,23.4.4,35ZM241.1,316.5v-68.2c0-.1,0-.2.1-.4,0-9.9,0-19.9-.1-29.8-.1-8.5,0-20.7-7.7-26.3-4.5-3.3-9.6-3.9-14.9-4.1-8.7-.2-17.4-.4-26.1-.6-.4.2-.8.3-1.1.3-12.5-.5-25.1-.5-37.7-.4-.8.5-2.3.6-2.3,0h0c-1.5,0-3,0-4.4,0-3.1,0-6.2.2-9.3.3-.5,0-.7,0-.7-.2-5,0-10,0-15,0-12.4,0-24.7,0-37.1,0-2,0-4,0-6,0-8,0-16,0-24,0-.4.3-.8.5-1.3.5-8.6-.4-20.8-.6-25.5,8.3-1.2,2.2-2,4.5-2.5,6.9v.4c0,.2,0,.4-.2.5-1.3,6.4-1,13.2-1,19.5v69.3s0,0,0,.1v26.1c0,1.7,0,3.5,0,5.4,0,1.4.1,2.8.2,4.2.4,6.7,1.6,14.2,6.1,19,1.9,1.9,4.2,3.1,6.6,4,3.1.9,6,.9,9.3,1,13.8.3,27.6.4,41.4.5,14.5.1,29.1.5,43.6.6.4-.3,1-.5,1.4-.5.8,0,1.6,0,2.4,0,7.6,0,15.3.2,22.9.2,2.4,0,4.8-.1,7.2-.2.6,0,.8,0,.8.3,18.2,0,36.4-.2,54.5-.7,5.7-.2,11.7-.9,15.4-5.9,6.2-8.4,5.1-20.7,5.1-30.5ZM315.2,317.8c-4.6-6.1-8.5-12.6-11.5-19.6-.2.5-.7.9-1.4.9h-56.2c-2,0-1.5-2.3.2-2.3h56.2c.3,0,.5,0,.7.1-3.2-7.8-5.2-16-5.7-24.5-.7-13,1.9-25.8,7.3-37.5,0-.1-.2-.3-.2-.5v-81.3c-8.2.2-16.4.4-24.6.4-.4,6.7-.8,13.5-.8,20.2,0,1.1-1.8,1.5-2.6.9-.1,0-.3,0-.4,0h-63.8c-.6.3-1.5.3-1.9-.1-.1,0-.2-.2-.2-.3,0-.1,0-.2,0-.4,0-12.3,11.3-103.3-7.7-101-1.1.1-1.4-.5-1.2-1.1h-14.2c-2,0-.3-2,1-2h94c2,0,.3,2-1,2h-7.5c3.1,2,4.8,6.2,5.8,9.8,2.6,10.1,2.8,21,2.7,31.4,0,12.8-1.2,25.6-2.1,38.5,8.2,0,16.3-.1,24.5-.3V34.3h-138.2v114.7c5.2,0,10.5,0,15.7,0-2.5-1.5-4.8-3.2-7.2-3.9-1.7-.4.8-1.9,1.8-1.6,1.8.5,3.6,1.7,5.2,2.6,1.8,1,4.5,3,6.6,3.2,1.6.2.6,1.3-.4,1.6.9-.3,0,.1-.3.3-.4.3-.9.6-1.3.9-1.2.8-2.3,1.6-3.5,2.4-1.2.9-2.4,1.8-3.5,2.7-.4.3-.8.7-1.1,1-.2.2-.2.3-.3.3.3.8-1.9,1.6-2.6,1.1-1.7-1.1,3.6-4.5,4.3-5,1.4-1,2.9-2.4,4.6-3.5-6,0-12,0-17.9,0v34.1c0,.3-.2.5-.5.7,8.6,0,17.2,0,25.7.4,11.1,0,22.2-.3,33.3.5,19.7,1.4,19.1,23,19.1,37.8v91.2c0,4.8.2,10-.2,15,0,0,.1,0,.2,0,14.3,0,28.6.7,42.9.6,11.9,0,23.3-1,28.2-13.5,0,0,0,0,0,0ZM246.3,151.5c3.9,0,7.8,0,11.7,0,6.6,0,13.2,0,19.9,0,2.3-30.8,4.8-80.2-9.2-78.6-1.1.1-1.4-.5-1.2-1.1h-59.7c3.1,2,4.8,6.2,5.8,9.8,2.6,10.1,2.8,21,2.7,31.4,0,20-2.8,40-3,59.9h63.1c.1-3.5.7-10.6,1.4-19.4-10.6,0-21.1.1-31.7.1-2,0-1.4-2.1.3-2.1ZM433,190.9s0,0,0,0c-3.2-1.6-6.5-3-9.9-4.2-35.7-12.5-79.4.8-103.4,29.7-12.4,14.9-20.1,33.9-19.3,53.5.9,22.6,12.1,42.6,27.8,58.4,18.8,18.2,46.5,24.9,72,22.4,22-2.1,44.2-10.5,59.1-27.3,11.5-12.9,18.2-29.4,19.4-46.7,2.3-34-14.8-69.9-45.7-85.8ZM456.7,228c16.4,28,15.9,66.8-8.4,90.3-29.1,28.1-83.6,30.3-113.2,1.7-9.2-9.2-17-20.2-20.8-32.7-11.8-38.2,13.5-75.1,49.1-88.5,17.5-6.6,38.3-8.2,56.1-1.8,15.6,5.6,28.9,16.7,37.3,31ZM450.7,224.2c-10.5-14.7-26.2-25.4-44.2-28.2-21.4-3.3-44.6,2.3-62.1,15.1-15.9,11.7-28,29.4-30,49.4-2.2,22.4,7.7,42.6,23.2,58.2,29.5,28.5,87.3,25.7,113.1-6.7,19.9-25,18.3-62.3,0-87.9ZM70.4,74.5c-1.9.7-.2,1.7,1.1,1.2,6.3-2.3-2.2-9.6-3.3-12.8-.3-1-3.2-.2-2.9.8.5,1.7,7.5,9.9,5,10.8ZM60.3,78.5c.4,1.8,2,2.9,3.9,2.9.7,0,1.5-.2,1.9-.8.4-.6-.3-1-.8-1-1.1,0-1.8-.8-2-1.8-.3-1.1-3.2-.4-2.9.8ZM63.2,67c-.3-.6-.3-1.2-.6-1.8-.4-.8-3.2.1-2.9.8.3.6.3,1.2.6,1.8.4.8,3.2-.1,2.9-.8ZM56.7,61.6c.6,0,1.5-.2,1.9-.7.4-.5,1.3-1,1.9-.5.7.6,3.3-.5,2.7-1.1-.9-.8-2.5-.6-3.6-.3-1.3.3-2.8.9-3.7,2-.4.5.4.6.7.6ZM71.3,64.4c.4.8,3.2-.1,2.9-.8-.3-.6-.3-1.2-.6-1.8-.4-.8-3.2.1-2.9.8.3.6.3,1.2.6,1.8ZM397.8,76.5c.9.3,3.5-1,2.3-1.4-3.3-1.3,3.5-8.4,4.1-10.4.3-1-2.6-.6-2.9.4-.8,2.5-8.5,9.6-3.5,11.4ZM403.3,80.6c-.3.6.3,1,.8,1,2.1,0,4.2-1,4.7-3.2.3-1.2-2.7-.8-2.9.3,0,.4-.3.7-.5,1,0,0,0,0,0,0,0,0,0,0,0,0t0,0s0,0-.1,0c0,0,0,0,0,0-.7,0-1.5.2-1.9.8ZM405.2,79.8c.3,0-.1,0,0,0h0ZM408.2,66.4c-.5,0-1.4.3-1.7.9-.2.5-.3,1.1-.5,1.6-.2.5,1,.4,1.2.4.5,0,1.4-.3,1.7-.9.2-.5.3-1.1.5-1.6.2-.5-1-.4-1.2-.4ZM406.3,62.4c.5,0,1.1,0,1.6-.3.3,0,.6.1.8.2.5.2,1,.5,1.4.9.5.6,3.3-.4,2.7-1.1-1.4-1.8-5-2.1-6.8-.6-.4.4-.4.7.2.8ZM397,66.2c.5,0,1.4-.3,1.7-.9.2-.5.3-1.1.5-1.6.2-.5-1-.4-1.2-.4-.5,0-1.4.3-1.7.9-.2.5-.3,1.1-.5,1.6-.2.5,1,.4,1.2.4ZM406.7,304.5c-3.9,1.5-8.2,2.3-12.5,2.3v6.6c0,.9-2.9,1.3-2.9.8v-7.5c-10.5-.6-20.6-5.5-25-15.5-.5-1.1,2.4-1.9,2.9-.8,4,8.8,12.8,13.5,22.1,14.2v-40c-2.4-.3-4.7-.6-7.1-1-5.6-1-13.1-2.9-15.6-8.7-3-6.8-.4-15.6,5-20.3,4.5-4,11-6,17.7-6.2v-11.2c0-.9,2.9-1.3,2.9-.8v12.1c7.7.5,15.2,3.4,19.7,8.6.9,1-1.9,2.1-2.7,1.2-.2-.2-.4-.4-.6-.7-4.1-4.2-10.3-6.5-16.5-7v32.4c6.9.9,14.2,2.2,19.6,6.8,12,10.4,7.1,29.3-7.1,34.6ZM391.3,230.5c-2.6,0-5.2.4-7.5,1-8.9,2.5-16.9,12.3-12.6,21.9,3.3,7.3,13,8.3,20.1,9.2,0-10.7,0-21.4,0-32.1ZM409.4,269.9c-4.7-2.9-9.9-4-15.2-4.8v39.7c7.9,0,17.3-2.2,21.1-9.8,4.3-8.6,2.9-19.8-5.9-25.1ZM51.2,216.8h58c1.2,0,3-1.8,1.1-1.8h-58c-1.2,0-3,1.8-1.1,1.8ZM117.1,295.5c.9,0,3.2-1.3,1.2-1.3H48.3c-.9,0-3.2,1.3-1.2,1.3h70ZM267.3,83.1h-39c-1,0-3.1,1.6-1.1,1.6h39c1,0,3.1-1.6,1.1-1.6ZM230.1,97.6h39c1,0,3.1-1.6,1.1-1.6h-39c-1,0-3.1,1.6-1.1,1.6ZM270.3,108.1h-39c-1,0-3.1,1.6-1.1,1.6h39c1,0,3.1-1.6,1.1-1.6ZM270.3,120.1h-39c-1,0-3.1,1.6-1.1,1.6h39c1,0,3.1-1.6,1.1-1.6ZM231.3,132.1c-1,0-3.1,1.6-1.1,1.6h39c1,0,3.1-1.6,1.1-1.6h-39ZM270.3,144.1h-39c-1,0-3.1,1.6-1.1,1.6h39c1,0,3.1-1.6,1.1-1.6Z"/>
</svg>